PathFileType	4	(x/y/z)	S09_P20_T26
DataRate	CameraRate	NumFrames	NumMarkers	Units	OrigDataRate	OrigDataStartFrame	OrigNumFrames
240	240	5	51	mm	240	1	394
Frame#	Time	Sternum			R.Acromium			L.Acromium			Top.Head			R.ASIS			L.ASIS			R.PSIS			L.PSIS			R.Great.Tro			L.Great.Tro			R.Iliac.Crest			L.Iliac.Crest			V.Sacral			R.Thigh.Upper.Post			R.Thigh.Lower.Ant			R.Thigh.Lower.Post			R.Thigh.Upper.Ant			R.Knee.Lat			R.Knee.Med			R.Shank.Upper.Post			R.Shank.Lower.Ant			R.Shank.Lower.Post			R.Shank.Upper.Ant			R.Ankle.Lat			R.Ankle.Med			R.Heel.Upper			R.Heel.Med			R.Heel.Lat			R.Toe.Lat			R.Toe.Med			R.Toe.Tip			L.Thigh.Upper.Post			L.Thigh.Lower.Ant			L.Thigh.Lower.Post			L.Thigh.Upper.Ant			L.Knee.Lat			L.Knee.Med			L.Shank.Upper.Post			L.Shank.Lower.Ant			L.Shank.Lower.Post			L.Shank.Upper.Ant			L.Ankle.Lat			L.Ankle.Med			L.Heel.Upper			L.Heel.Med			L.Heel.Lat			L.Toe.Lat			L.Toe.Med			L.Toe.Tip			Cervical.Spine			Back			
		X1	Y1	Z1	X2	Y2	Z2	X3	Y3	Z3	X4	Y4	Z4	X5	Y5	Z5	X6	Y6	Z6	X7	Y7	Z7	X8	Y8	Z8	X9	Y9	Z9	X10	Y10	Z10	X11	Y11	Z11	X12	Y12	Z12	X13	Y13	Z13	X14	Y14	Z14	X15	Y15	Z15	X16	Y16	Z16	X17	Y17	Z17	X18	Y18	Z18	X19	Y19	Z19	X20	Y20	Z20	X21	Y21	Z21	X22	Y22	Z22	X23	Y23	Z23	X24	Y24	Z24	X25	Y25	Z25	X26	Y26	Z26	X27	Y27	Z27	X28	Y28	Z28	X29	Y29	Z29	X30	Y30	Z30	X31	Y31	Z31	X32	Y32	Z32	X33	Y33	Z33	X34	Y34	Z34	X35	Y35	Z35	X36	Y36	Z36	X37	Y37	Z37	X38	Y38	Z38	X39	Y39	Z39	X40	Y40	Z40	X41	Y41	Z41	X42	Y42	Z42	X43	Y43	Z43	X44	Y44	Z44	X45	Y45	Z45	X46	Y46	Z46	X47	Y47	Z47	X48	Y48	Z48	X49	Y49	Z49	X50	Y50	Z50	X51	Y51	Z51	

1	0	NaN	NaN	NaN	-1411.6	1443	474.4	-1426.2	1432.9	162.91	-1419.8	1744.9	307.75	NaN	NaN	NaN	NaN	NaN	NaN	-1575.1	1053.9	370.2	-1573.7	1050.7	280.5	-1439.3	938.33	515.06	-1437	934.2	127.77	-1428.8	1102	483.32	-1465.6	1118	163.47	-1592.9	1018.1	323.08	-1493.8	695.63	482.42	-1442	585.44	441.71	-1521.5	609.15	455.71	-1423.8	671.04	468.24	-1494.4	512.64	434	NaN	NaN	NaN	-1597.9	375.71	445.6	NaN	NaN	NaN	NaN	NaN	NaN	NaN	NaN	NaN	-1727.1	137.68	412.09	-1699.3	136.23	325.76	-1796.7	131.35	361.78	-1793.3	96.604	334.67	-1803	104.28	398.47	-1654.2	51.809	453.86	-1601.7	45.135	350.28	-1552.4	51.752	397.47	-1432.1	671.1	172.48	-1337.1	598.14	165.36	-1394.2	588.51	190.29	-1368	676.82	142.92	-1317	519.38	179.66	-1300	534.39	311.33	-1324	379.59	166.86	-1238.3	310.49	176.66	-1303	305.1	171.64	-1260.9	384.8	173.18	-1217.2	115.02	191.12	-1198.4	119.27	282.09	-1268.9	59.837	247.54	-1248.9	44.593	280.67	-1258.3	31.577	220.7	-1094.5	78.662	162.73	-1063.5	106.49	267.74	-1021.9	135.72	207.59	-1505.8	1489.8	330.65	-1554.2	1224.6	323.73
2	0.0041667	NaN	NaN	NaN	-1407.5	1442.4	473.63	-1421.5	1432.6	162.3	-1415.3	1744.5	307.38	NaN	NaN	NaN	NaN	NaN	NaN	-1570	1053.3	369.46	-1568.5	1049.9	279.77	-1434.3	937.89	514.39	-1431.4	933.59	127.19	-1423.9	1101.5	482.65	-1460.6	1117.5	162.74	-1587.7	1017.4	322.34	-1488	694.92	481.88	-1436	584.82	441.35	-1515.5	608.34	455.27	-1418.1	670.46	467.8	-1488.4	511.85	433.85	NaN	NaN	NaN	-1596	376.39	445.34	NaN	NaN	NaN	NaN	NaN	NaN	NaN	NaN	NaN	-1725.2	139.49	412.01	-1697	137.46	325.77	-1795	134.32	361.64	-1791.8	99.475	334.41	-1801.8	107	398.24	-1653.6	52.232	453.75	-1601.2	45.09	350.33	-1552.1	51.603	397.5	-1426.5	670.53	172.06	-1330.9	597.33	165.65	-1388.7	587.92	190.06	-1362.2	676.25	142.9	-1312.2	518.62	179.73	-1294.6	533.95	311.21	-1320.2	378.86	167.09	-1234.9	309.26	176.9	-1299.7	304.25	171.84	-1256.8	383.76	173.3	-1215.1	113.94	191.45	-1196.6	117.84	282.49	-1267.6	60.257	247.81	-1248	44.463	280.89	-1257.7	31.913	220.9	-1093.1	76.379	163.53	-1062	103.35	268.48	-1019.7	132.18	208.47	-1501.3	1489.3	330.09	-1549.4	1224	323.11
3	0.0083333	NaN	NaN	NaN	-1403.2	1441.7	472.83	-1416.7	1432.3	161.66	-1410.5	1744.1	307	NaN	NaN	NaN	NaN	NaN	NaN	-1564.7	1052.6	368.68	-1563	1049.1	278.99	-1429	937.42	513.7	-1425.4	932.96	126.56	-1418.8	1101	481.95	-1455.4	1117	161.97	-1582.2	1016.6	321.55	-1481.9	694.18	481.32	-1429.6	584.18	441	-1509.1	607.49	454.83	-1412.2	669.86	467.35	-1482.2	511.02	433.72	NaN	NaN	NaN	-1593.8	377.12	445.09	NaN	NaN	NaN	NaN	NaN	NaN	NaN	NaN	NaN	-1723.2	141.4	411.94	-1694.5	138.79	325.79	-1793.1	137.47	361.47	-1790.2	102.54	334.12	-1800.5	109.91	397.97	-1653.1	52.701	453.64	-1600.7	45.04	350.38	-1551.9	51.451	397.52	-1420.7	669.94	171.6	-1324.6	596.5	165.92	-1383	587.31	189.79	-1356.1	675.65	142.88	-1307.3	517.84	179.78	-1289.2	533.48	311.08	-1316.3	378.12	167.3	-1231.3	308.01	177.15	-1296.1	303.39	172.03	-1252.6	382.71	173.43	-1212.8	112.87	191.79	-1194.7	116.39	282.89	-1266.1	60.7	248.08	-1247.2	44.351	281.1	-1257	32.273	221.1	-1091.6	74.027	164.35	-1060.5	100.09	269.24	-1017.5	128.48	209.39	-1496.6	1488.7	329.5	-1544.5	1223.4	322.45
4	0.0125	NaN	NaN	NaN	-1398.7	1441	472.02	-1411.6	1431.9	161	-1405.6	1743.7	306.61	NaN	NaN	NaN	NaN	NaN	NaN	-1559.3	1052	367.84	-1557.4	1048.3	278.16	-1423.6	936.94	512.96	-1419.2	932.34	125.89	-1413.6	1100.5	481.21	-1450.1	1116.4	161.15	-1576.6	1015.8	320.71	-1475.5	693.4	480.76	-1422.9	583.51	440.67	-1502.4	606.59	454.38	-1406	669.25	466.91	-1475.6	510.16	433.62	NaN	NaN	NaN	-1591.3	377.89	444.83	NaN	NaN	NaN	NaN	NaN	NaN	NaN	NaN	NaN	-1721.1	143.43	411.85	-1691.9	140.21	325.82	-1791.1	140.8	361.27	-1788.4	105.78	333.79	-1799	112.99	397.66	-1652.5	53.219	453.51	-1600.2	44.987	350.44	-1551.7	51.296	397.55	-1414.7	669.35	171.11	-1318.1	595.64	166.16	-1377.1	586.69	189.49	-1349.8	675.04	142.84	-1302.2	517.07	179.79	-1283.7	532.96	310.93	-1312.1	377.38	167.48	-1227.5	306.76	177.4	-1292.4	302.53	172.2	-1248.3	381.64	173.55	-1210.5	111.8	192.12	-1192.8	114.93	283.29	-1264.7	61.165	248.34	-1246.4	44.261	281.3	-1256.3	32.656	221.29	-1090.1	71.627	165.17	-1058.9	96.727	270.02	-1015.2	124.64	210.34	-1491.7	1488.2	328.89	-1539.3	1222.7	321.75
5	0.016667	NaN	NaN	NaN	-1394.1	1440.3	471.2	-1406.4	1431.6	160.31	-1400.6	1743.3	306.2	NaN	NaN	NaN	NaN	NaN	NaN	-1553.6	1051.3	366.95	-1551.6	1047.5	277.27	-1417.9	936.45	512.2	-1412.8	931.72	125.19	-1408.1	1100	480.44	-1444.5	1115.9	160.3	-1570.8	1015.1	319.81	-1468.9	692.59	480.19	-1415.9	582.81	440.38	-1495.5	605.65	453.94	-1399.6	668.62	466.47	-1468.7	509.27	433.54	NaN	NaN	NaN	-1588.4	378.71	444.59	NaN	NaN	NaN	NaN	NaN	NaN	NaN	NaN	NaN	-1718.8	145.55	411.77	-1689.1	141.72	325.86	-1788.9	144.3	361.05	-1786.5	109.21	333.43	-1797.4	116.26	397.32	-1651.9	53.792	453.38	-1599.7	44.934	350.5	-1551.4	51.14	397.56	-1408.5	668.76	170.59	-1311.4	594.78	166.38	-1371.2	586.07	189.15	-1343.3	674.41	142.79	-1297.1	516.31	179.77	-1278.2	532.41	310.78	-1307.8	376.66	167.63	-1223.6	305.52	177.66	-1288.5	301.68	172.36	-1243.8	380.58	173.67	-1208.2	110.75	192.46	-1190.8	113.48	283.7	-1263.3	61.647	248.57	-1245.5	44.199	281.5	-1255.6	33.06	221.47	-1088.6	69.205	166	-1057.2	93.299	270.82	-1012.8	120.69	211.3	-1486.7	1487.6	328.25	-1534	1222.1	321.03
